<?xml version="1.0" encoding="utf-8"?>
<!-- Generator: Adobe Illustrator 23.0.0, SVG Export Plug-In . SVG Version: 6.00 Build 0)  -->
<svg version="1.1" id="Layer_1" xmlns="http://www.w3.org/2000/svg" xmlns:xlink="http://www.w3.org/1999/xlink" x="0px" y="0px"
	 viewBox="0 0 566.93 354.13" style="enable-background:new 0 0 566.93 354.13;" xml:space="preserve">
<style type="text/css">
	.st0{fill:#FFFFFF;stroke:#1E2A3B;stroke-width:10;stroke-miterlimit:10;}
	.st1{fill:#1E2A3B;}
	.st2{fill:none;stroke:#1E2A3B;stroke-width:3;stroke-miterlimit:10;}
	.st3{fill:none;stroke:#FF805A;stroke-width:5;stroke-miterlimit:10;}
	.st4{fill:none;stroke:#1E2A3B;stroke-width:2;stroke-miterlimit:10;}
	.st5{fill:none;stroke:#1E2A3B;stroke-width:1.6;stroke-miterlimit:10;}
	.st6{fill:none;stroke:#1E2A3B;stroke-width:2;stroke-miterlimit:10;stroke-dasharray:11.0677,11.0677;}
</style>
<path class="st0" d="M502.17,320.43H63.29c-21.92,0-39.68-17.77-39.68-39.68V72.4c0-21.92,17.77-39.68,39.68-39.68h438.87
	c21.92,0,39.68,17.77,39.68,39.68v208.34C541.85,302.66,524.08,320.43,502.17,320.43z"/>
<path class="st1" d="M86.96,141.24v50.6c3.37,4.54,7.04,7.75,11.04,9.61c4.01,1.86,8.47,2.78,13.43,2.78
	c9.78,0,17.29-3.47,22.52-10.43c5.23-6.95,7.85-16.87,7.85-29.74c0-6.82-0.6-12.66-1.82-17.56c-1.19-4.88-2.94-8.89-5.22-12.03
	c-2.26-3.13-5.06-5.42-8.36-6.86c-3.31-1.46-7.06-2.18-11.27-2.18l-0.51-14.87c10.97-1.18,18.03,1.15,22.93,3.46
	c4.89,2.31,9.05,5.72,12.49,10.23c3.44,4.51,6.09,10.1,7.95,16.77c1.86,6.68,2.8,14.36,2.8,23.04c0,7.71-1.04,14.88-3.1,21.53
	c-2.07,6.66-5.06,12.41-8.93,17.25c-3.89,4.85-8.65,8.69-14.26,11.47c-5.61,2.8-11.93,4.18-18.95,4.18c-6.4,0-11.9-1.08-16.47-3.24
	c-4.58-2.18-8.63-5.19-12.13-9.05v46.28h-18.5V112.42C83.31,112.42,86.96,141.24,86.96,141.24z"/>
<path class="st1" d="M309.83,235.81v16.03h-79.98V110.88h18.99v124.94H309.83z"/>
<path class="st1" d="M482.89,125.83h-33.84c-7.68,0-14.62,1.26-20.85,3.78c-6.22,2.51-11.51,6.13-15.88,10.87
	c-4.36,4.72-7.74,10.54-10.12,17.42c-2.38,6.88-3.57,14.69-3.57,23.41c0,8.74,1.19,16.55,3.57,23.43
	c2.38,6.88,5.76,12.7,10.12,17.47c4.37,4.76,9.66,8.39,15.88,10.91c6.22,2.52,13.17,3.77,20.85,3.77h33.84
	c0,0,19.26,0.66,19.26,15.59h-53.1c-10.45,0-20-1.7-28.63-5.11c-8.63-3.42-16.03-8.24-22.18-14.5c-6.16-6.26-10.92-13.75-14.3-22.47
	c-3.37-8.74-5.06-18.43-5.06-29.09c0-10.65,1.69-20.34,5.06-29.08c3.38-8.74,8.14-16.21,14.3-22.43
	c6.15-6.22,13.55-11.04,22.18-14.44s18.18-5.11,28.63-5.11h53.1C502.15,125.78,482.89,125.83,482.89,125.83z"/>
<g>
	
		<ellipse transform="matrix(0.7071 -0.7071 0.7071 0.7071 -48.7727 244.973)" class="st2" cx="271.32" cy="181.36" rx="90.58" ry="90.58"/>
	<path class="st3" d="M271.32,100.78"/>
	<line class="st4" x1="326.65" y1="137.32" x2="409.97" y2="68.73"/>
	<line class="st5" x1="153.38" y1="280.11" x2="195.63" y2="244.43"/>
	<g>
		<g>
			<line class="st4" x1="346.14" y1="108.72" x2="350.77" y2="104.91"/>
			<line class="st6" x1="359.32" y1="97.88" x2="389.24" y2="73.27"/>
			<line class="st4" x1="393.51" y1="69.76" x2="398.15" y2="65.94"/>
		</g>
	</g>
</g>
</svg>
