<svg id="Layer_1" data-name="Layer 1" xmlns="http://www.w3.org/2000/svg" viewBox="0 0 348.51 297.4"><defs><style>.cls-1{fill:#e31b22;}.cls-2{fill:#fff;}.cls-3{fill:#09c;}.cls-4{fill:#c90000;}.cls-5{fill:#071688;}</style></defs><title>PLS3 نهائي</title><rect class="cls-1" x="122.07" y="140.39" width="109.63" height="109.63" transform="translate(189.84 -67.9) rotate(45)"/><path class="cls-2" d="M123.37,184.88l23.62-2.4L189.55,225l18.38-18.38,22.47-1.12-43.19,43.19Z"/><rect class="cls-3" x="217.75" y="18.58" width="73.23" height="146.45" transform="translate(9.58 206.75) rotate(-45)"/><rect class="cls-3" x="62.79" y="19" width="73.23" height="146.45" transform="translate(94.33 -43.28) rotate(45)"/><path class="cls-2" d="M107.23,41.43l22,21.94c11.2,11.21,14.88,27.17,2,40.06-13.23,13.23-29.17,10.93-42.12-2l-8.75-8.76L55.75,117.22,43.59,105.07Zm-16.69,41,8,8c6.47,6.48,13.07,7.92,20.06.93C125,85,123.41,78.2,117.45,72.24l-8.36-8.36Z"/><path class="cls-2" d="M261.93,138.73c10.88,7.45,24.45,7.49,37.5-5.56,13.46-13.46,13.26-26.21,5.11-34.36s-16.2-9-36.44,4.33c-16.39,10.84-25.54,13.77-35,4.27-9.67-9.67-6.4-23.53,4.28-34.21,16.48-16.47,30.06-10.39,36.59-5.82l-1.71,1.71c-7.94-4.84-19.5-8.07-33.28,5.71-8.81,8.81-13.58,21.48-4.25,30.81,7.31,7.32,14.43,7.42,32.3-4.56,21.8-14.57,30.85-12.53,39.09-4.29,11.43,11.43,6.61,26.35-5,37.93-13,13-27.08,15.48-40.89,5.75Z"/><polygon class="cls-4" points="280.42 169.63 202.77 91.99 202.8 91.97 176.91 66.08 176.88 66.1 176.86 66.08 150.97 91.97 150.99 91.99 73.35 169.63 99.24 195.52 176.88 117.88 254.53 195.52 280.42 169.63"/><rect class="cls-5" x="-12.72" y="194.1" width="218.71" height="8" transform="translate(168.38 -10.31) rotate(45)"/><rect class="cls-5" x="156.1" y="234.89" width="117.49" height="8" transform="translate(535.68 255.89) rotate(135)"/></svg>